<svg xmlns="http://www.w3.org/2000/svg" width="30.085" height="35" viewBox="0 0 30.085 35"><path d="M30.04,12.641q.044-.571.044-1.154a.761.761,0,1,0-1.521,0c0,.217-.005.431-.016.646H26.51q.018-.32.018-.646a11.487,11.487,0,1,0-22.973,0c0,.217.007.432.018.646H1.537c-.01-.214-.016-.429-.016-.646a.761.761,0,0,0-1.521,0q0,.582.044,1.154a.752.752,0,0,0,.064.641A15.07,15.07,0,0,0,13.6,26.459v7.02h-5.6a.761.761,0,0,0,0,1.521h14.1a.761.761,0,0,0,0-1.521h-5.6v-7.02A15.07,15.07,0,0,0,29.977,13.281a.759.759,0,0,0,.108-.388A.786.786,0,0,0,30.04,12.641Zm-15-11.119a9.966,9.966,0,1,1-9.966,9.966A9.977,9.977,0,0,1,15.042,1.521Zm0,23.486A13.541,13.541,0,0,1,1.7,13.654H3.761a11.488,11.488,0,0,0,22.563,0h2.065A13.542,13.542,0,0,1,15.042,25.008Z"/><path d="M149.606,71.751a.884.884,0,0,0,.627-.259l2.929-2.929a.886.886,0,0,0-1.253-1.253l-2.929,2.929a.886.886,0,0,0,.627,1.513Z" transform="translate(-139.902 -62.296)"/><path d="M144.986,72.274a.884.884,0,0,0,.627-.259l8.071-8.071a.886.886,0,0,0-1.253-1.253l-8.071,8.071a.886.886,0,0,0,.627,1.513Z" transform="translate(-135.897 -58.004)"/></svg>