<svg xmlns="http://www.w3.org/2000/svg" width="28.064" height="28.063" viewBox="0 0 28.064 28.063"><defs><style>.a{fill:none;stroke:#000;stroke-miterlimit:10;stroke-width:2px;}</style></defs><path class="a" d="M9.272,18.758c6.7,6.7,13.095,8.118,15.456,8.242a17.187,17.187,0,0,0,2.2-4.387,2.01,2.01,0,0,0-.6-2.164,21.432,21.432,0,0,0-5.21-3.243l-2.58,2.58a15.35,15.35,0,0,1-6.187-4.124A15.475,15.475,0,0,1,8.23,9.475l2.58-2.58a21.362,21.362,0,0,0-3.235-5.2A2.022,2.022,0,0,0,5.409,1.1,17.042,17.042,0,0,0,1.03,3.3C1.161,5.664,2.575,12.062,9.272,18.758Z" transform="translate(0 0.035)"/></svg>