<svg xmlns="http://www.w3.org/2000/svg" width="150" height="85" viewBox="0 0 150 85">
  <g id="full_logomark" transform="translate(0)">
    <path id="パス_16" data-name="パス 16" d="M139.5,78.331h.462c.218-.946.318-1.1.782-1.1h.147V80.1H140.3v.5h2.146v-.5h-.6V77.232h.147c.471,0,.571.153.785,1.1h.457V76.8H139.5Z" transform="translate(0.952 0.206)" fill="#fff" fill-rule="evenodd"/>
    <g id="グループ_14" data-name="グループ 14" transform="translate(144.746 77.003)">
      <path id="パス_17" data-name="パス 17" d="M5.465.783V.28h-1.8L2.89,2.625H2.872L2.052.28H.211v.5h.5v2.8h-.5v.5h1.5v-.5H1.224V.9h.052L2.447,4.089h.388L3.955.9h.053V3.582h-.48v.5H5.465v-.5H4.956V.783Z" transform="translate(-0.211 -0.28)" fill="#fff" fill-rule="evenodd"/>
    </g>
    <path id="パス_18" data-name="パス 18" d="M3.493,83.754H2.681V77.845h.712c1.924,0,2.7.859,2.7,2.872,0,2.237-.755,3.037-2.6,3.037m-.136-6.766H0v.868H1.182v5.886H0v.868H3.445c2.988,0,4.347-1.727,4.347-3.894,0-2.221-1.467-3.729-4.434-3.729m11.1,3.474H13.32V77.844h1.246c1.065,0,1.384.427,1.384,1.238,0,.918-.381,1.38-1.49,1.38M17.637,83.8c-.211,0-.312-.139-.349-.551l-.044-.688c-.062-.843-.466-1.448-1.76-1.657V80.81c1.607-.219,2.119-1.019,2.119-1.867,0-.962-.684-1.956-3.009-1.956H10.637v.871h1.187v5.886H10.637v.866h3.87v-.866H13.32v-2.47H14.5c1,0,1.184.37,1.2,1.184l.019.7c.018,1.138.61,1.586,1.533,1.586.8,0,1.242-.532,1.476-1.3l-.583-.229c-.174.416-.312.576-.5.576m8.3-5.939h1.129v3.729a2.293,2.293,0,0,1-.47,1.737,1.762,1.762,0,0,1-1.325.5c-1.313,0-2-.53-2-1.981V77.857h1.106v-.871H20.7v.871h1.07v4.3c0,1.592,1.056,2.632,3.156,2.632,2.054,0,3.1-1.241,3.1-2.652V77.857h1.033v-.871H25.933Z" transform="translate(0 0.206)" fill="#fff" fill-rule="evenodd"/>
    <path id="パス_19" data-name="パス 19" d="M37.092,77.858h1.15v4.6h-.115l-3.585-5.47H31.691v.87h1.1v5.884h-1.1v.868H34.87v-.868H33.732v-5.1h.108l4.012,6.117h1.319v-6.9h1.1v-.87H37.092Z" transform="translate(0.215 0.206)" fill="#fff" fill-rule="evenodd"/>
    <path id="パス_20" data-name="パス 20" d="M47.576,80.069l2.243-2.212h.957v-.868H47.638v.856h.983l-3.012,3.072V77.845H46.67v-.856H42.926v.868h1.185v5.886H42.926v.868h3.732v-.857H45.609V81.979l.964-.937,1.912,2.712H47.57v.857h3.587v-.868h-.893Z" transform="translate(0.29 0.206)" fill="#fff" fill-rule="evenodd"/>
    <path id="パス_21" data-name="パス 21" d="M62.511,83.755h-2.07V81.111h.737c.757,0,.879.119,1.045,1.149h.746V79.2h-.746c-.191,1.008-.287,1.127-1.045,1.127h-.737V77.846H62.56c.932,0,1.074.316,1.446,1.725h.744V76.987h-7v.87h1.192v5.886H57.753v.866h7.1V81.771h-.739c-.363,1.6-.5,1.983-1.6,1.983m9.544,0h-1.49V77.844H71.8v-.857H67.878v.87h1.191v5.886H67.878v.866h6.539V81.644h-.7c-.555,1.9-.732,2.109-1.662,2.109m9.892,0H79.879V81.111h.73c.769,0,.891.119,1.049,1.149H82.4V79.2h-.746c-.184,1.008-.28,1.127-1.049,1.127h-.73V77.846H82c.927,0,1.07.316,1.442,1.725h.743V76.987H77.191v.87h1.186v5.886H77.191v.866h7.1V81.771h-.739c-.367,1.6-.5,1.983-1.6,1.983m8.881-3.016H90V77.846h.829c1.3,0,1.664.578,1.664,1.4,0,.916-.314,1.492-1.664,1.492m.037-3.752H87.321v.871H88.5v5.886h-1.18v.866h3.984v-.866H90v-2.18h.946c2.405,0,3.2-1.17,3.2-2.328,0-1.227-.886-2.248-3.28-2.248" transform="translate(0.488 0.206)" fill="#fff" fill-rule="evenodd"/>
    <path id="パス_22" data-name="パス 22" d="M101.735,77.857h1.07v2.4H99.52v-2.4h1.086v-.87H96.828v.87h1.191v5.886H96.828v.866h3.778v-.866H99.52v-2.68h3.285v2.68h-1.07v.866h3.755v-.866H104.3V77.857h1.189v-.87h-3.755Z" transform="translate(0.657 0.206)" fill="#fff" fill-rule="evenodd"/>
    <path id="パス_23" data-name="パス 23" d="M110.53,81.264l1.086-3h.041l1.023,3Zm2.171-4.326h-1.489l-2.571,6.8h-.836v.866h2.8v-.866h-.966l.606-1.7h2.7l.6,1.7H112.4v.866h3.784v-.866h-1Z" transform="translate(0.73 0.206)" fill="#fff" fill-rule="evenodd"/>
    <path id="パス_24" data-name="パス 24" d="M123.884,77.858h1.146v4.6h-.111l-3.587-5.47H118.49v.87h1.1v5.884h-1.1v.868h3.175v-.868h-1.136v-5.1h.1l4.012,6.117h1.331v-6.9h1.088v-.87h-3.177Z" transform="translate(0.952 0.206)" fill="#fff" fill-rule="evenodd"/>
    <path id="パス_25" data-name="パス 25" d="M129.8,80.044h.705c.512-1.8.73-2.13,1.714-2.13h.413v6.033h-1.29v.868h4.074v-.868h-1.29V77.914h.423c.985,0,1.194.328,1.705,2.13h.71v-2.87H129.8ZM118.87,34.457V34.05a.119.119,0,0,0-.122-.112h-1.272c.313-.4.762-.955,1.015-1.317a1.608,1.608,0,0,0,.406-.957,1.205,1.205,0,0,0-1.333-1.18,1.634,1.634,0,0,0-1.161.582.107.107,0,0,0,0,.153l.278.286a.11.11,0,0,0,.163,0,.986.986,0,0,1,.663-.351.562.562,0,0,1,.631.538,1.107,1.107,0,0,1-.305.657c-.39.525-1.141,1.494-1.536,1.968v.139a.118.118,0,0,0,.115.11h2.332a.121.121,0,0,0,.122-.11m2.675-3.272c.464,0,.719.5.719,1.372s-.255,1.372-.719,1.372-.718-.495-.718-1.372.259-1.372.718-1.372m0,3.445c.953,0,1.5-.779,1.5-2.073s-.546-2.075-1.5-2.075-1.494.781-1.494,2.075.549,2.073,1.494,2.073m2.67-2.892.521-.119v2.838a.113.113,0,0,0,.112.11h.51a.109.109,0,0,0,.1-.11v-3.8a.114.114,0,0,0-.1-.116h-.413l-.857.724a.115.115,0,0,0-.027.105l.039.291a.1.1,0,0,0,.115.078m5.051-.075a1.2,1.2,0,0,0-1.329-1.179,1.645,1.645,0,0,0-1.173.582.111.111,0,0,0,.016.153l.281.286a.107.107,0,0,0,.16,0,.98.98,0,0,1,.659-.35.56.56,0,0,1,.629.538,1.127,1.127,0,0,1-.294.657c-.4.525-1.15,1.494-1.543,1.968v.139a.116.116,0,0,0,.12.11h2.329a.117.117,0,0,0,.118-.11V34.05a.116.116,0,0,0-.118-.112h-1.276c.312-.4.767-.955,1.015-1.317a1.564,1.564,0,0,0,.406-.957M49.109,4.271a10.6,10.6,0,0,0-3.617,3.47,17.07,17.07,0,0,0-2.371,6.915,58.719,58.719,0,0,0-.147,9.364,28.691,28.691,0,0,1-.9,9.038,21.5,21.5,0,0,1-6.108,9.755,15.579,15.579,0,0,1-3.261,2.263,5.95,5.95,0,0,1-3.48.818,5.563,5.563,0,0,0,3.785-.1,10.8,10.8,0,0,0,3.647-2.19,22.364,22.364,0,0,0,6.424-10.241,29.174,29.174,0,0,0,.941-9.368,59.665,59.665,0,0,1,.142-9.187A16.193,16.193,0,0,1,46.38,8.314a9.427,9.427,0,0,1,3.261-3.131,17.3,17.3,0,0,1,7.264-2.268,11.29,11.29,0,0,0-7.8,1.356M67.786,2.23c1.173-.142,4.659-.8,7.847-1.067a22.317,22.317,0,0,1,6.03.211,13.773,13.773,0,0,1,5.464,2.27,12.336,12.336,0,0,1,4.579,5.923,25.342,25.342,0,0,1,1.155,4.968,8.768,8.768,0,0,0-.159-5.3A13.272,13.272,0,0,0,87.736,2.78,14.988,14.988,0,0,0,81.861.34,23.382,23.382,0,0,0,75.553.109c-3.287.275-6.759.934-7.921,1.083a51.737,51.737,0,0,0-5.118,1.076,17,17,0,0,0,5.272-.039M79.261,22.721A4.782,4.782,0,0,0,80.323,20.8a5.768,5.768,0,0,0,.207-2.146A9.979,9.979,0,0,0,78.9,14.189c-1.93-3.074-5.268-5.115-6.243-5.829a38.985,38.985,0,0,0-4.82-2.721,22.154,22.154,0,0,0,4.221,3.587c.987.71,4.2,2.719,5.947,5.529a9.086,9.086,0,0,1,1.478,3.985,4.754,4.754,0,0,1-.168,1.775,3.779,3.779,0,0,1-.845,1.512,10.714,10.714,0,0,1-3.6,2.359c-3.071,1.367-6.606,2.831-7.629,3.653A21.745,21.745,0,0,0,63.1,31.757a42.031,42.031,0,0,0,4.714-2.833c.943-.765,4.336-2.169,7.51-3.578a11.714,11.714,0,0,0,3.941-2.625" transform="translate(0.952 0)" fill="#fff" fill-rule="evenodd"/>
    <path id="パス_26" data-name="パス 26" d="M54.984,13.2a7.5,7.5,0,0,0-2.667.441,4.525,4.525,0,0,0-1.079.624,3.64,3.64,0,0,0-1.01,1.289,1.049,1.049,0,0,0,.209,1.1c.4-.256.613-.37.748-.665a2.868,2.868,0,0,1,.721-.9,3.437,3.437,0,0,1,.81-.475,6.831,6.831,0,0,1,2.254-.365,1.369,1.369,0,0,0,.927-.455,1.135,1.135,0,0,0-.913-.59" transform="translate(0.333)" fill="#fff" fill-rule="evenodd"/>
    <path id="パス_27" data-name="パス 27" d="M54.624,14.587a3.365,3.365,0,0,1-1.024.521,11.84,11.84,0,0,1-1.242.308c-.2.037-.285.231-.411.587.218.308.37.471.578.443a8.962,8.962,0,0,0,1.4-.345,4.092,4.092,0,0,0,1.38-.713c.179-.169.147-.4.021-.752-.37-.1-.562-.155-.7-.05m-1.71,16.128a42.919,42.919,0,0,0-2.362,7.52,47.676,47.676,0,0,0-.9,6.052,29.982,29.982,0,0,0-.156,6.151,38.6,38.6,0,0,0,1.072,7.8,7.191,7.191,0,0,0,2.961,4.286,15.311,15.311,0,0,1-1.949-4.567,39.161,39.161,0,0,1-1.035-7.609A29.718,29.718,0,0,1,50.7,44.4a48.742,48.742,0,0,1,.893-5.932,43.293,43.293,0,0,1,2.295-7.339c.888-1.874,1.187-3.032,2.454-4.316-1.7.752-2.515,1.972-3.422,3.9M64.729,44.554a19.3,19.3,0,0,0-1.958-5.737,12.464,12.464,0,0,0-2.27-3.2,17.309,17.309,0,0,0,1.343,3.7,18.17,18.17,0,0,1,1.836,5.431,28.923,28.923,0,0,1,.4,4.492s.018,2.161-.211,4.554c-.193,2.392-.578,4.967-.751,5.815a28.615,28.615,0,0,0-.454,3.859A9.531,9.531,0,0,0,64.151,59.8a56.077,56.077,0,0,0,.771-5.922c.232-2.42.2-4.65.2-4.648a28.067,28.067,0,0,0-.4-4.675m25.11,7.689a28.931,28.931,0,0,0,1.269-5.322,18.308,18.308,0,0,0-.016-5.518A25.584,25.584,0,0,0,89.208,35.4a24.052,24.052,0,0,0-2.339-4.742c.547,1.782,1.058,3.361,1.74,5.114a31.466,31.466,0,0,1,1.435,5.8,17.717,17.717,0,0,1,.025,5.216,29.089,29.089,0,0,1-1.24,5.139c-.863,2.651-2.061,5.484-2.412,6.459a19.183,19.183,0,0,0-1.226,3.012c-.11,1.163-.03.932.126,1.435a18.869,18.869,0,0,0,2.077-4.072c.358-.951,1.556-3.8,2.445-6.512m23.729-8.753a29.555,29.555,0,0,1-2.656-3.786,23.3,23.3,0,0,1-2.7-6.432c-.755-2.788-1.432-5.386-1.457-5.381a25.58,25.58,0,0,0-2.125-5.265,12.256,12.256,0,0,0-5.277-5.2,6.1,6.1,0,0,0-4.841.373,12.685,12.685,0,0,1,4.467.605,11.527,11.527,0,0,1,4.735,4.741,24.584,24.584,0,0,1,2.029,5.045c.03-.011.677,2.527,1.448,5.37a24.235,24.235,0,0,0,2.839,6.709,7.953,7.953,0,0,0,3.54,3.224m-11.32,12.526c-.811-.978-1.27-1.624-2.149-2.712a19.694,19.694,0,0,1-2.644-4.463,20.081,20.081,0,0,1-1.15-3.875,22.569,22.569,0,0,1-.393-4.035c.046-2.125.188-4.551.074-5.374A5.714,5.714,0,0,0,94.7,32.181c.142,1.261.131,2.038.229,3.441.1.761-.036,3.08-.073,5.31a23.073,23.073,0,0,0,.42,4.229,19.543,19.543,0,0,0,4,8.8,6.016,6.016,0,0,0,2.968,2.054M23.073,34.372v-.484a.1.1,0,0,0-.1-.11H21.21V32.742h1.466a.111.111,0,0,0,.115-.11v-.491a.114.114,0,0,0-.115-.11H21.21v-.973h1.76a.1.1,0,0,0,.1-.112v-.48a.107.107,0,0,0-.1-.114H20.551a.111.111,0,0,0-.108.114v3.9a.11.11,0,0,0,.108.112H22.97a.106.106,0,0,0,.1-.112m2.342-.507a1.925,1.925,0,0,1-.9-.366.142.142,0,0,0-.2.041l-.209.368c-.055.094-.035.123.025.174a1.872,1.872,0,0,0,1.3.464A1.257,1.257,0,0,0,26.8,33.374c0-.759-.663-1.1-1.242-1.332-.48-.194-.7-.379-.7-.66a.467.467,0,0,1,.523-.413,1.915,1.915,0,0,1,.822.324.156.156,0,0,0,.207-.071l.227-.336a.15.15,0,0,0-.039-.2A2.107,2.107,0,0,0,25.42,30.3a1.176,1.176,0,0,0-1.331,1.133c0,.692.553,1.049,1.111,1.273.5.2.753.409.753.708a.493.493,0,0,1-.537.455m2.275-2.806H28.6v3.313a.117.117,0,0,0,.113.112h.548a.12.12,0,0,0,.117-.112V31.059h.907a.109.109,0,0,0,.11-.112v-.48a.113.113,0,0,0-.11-.117H27.691a.118.118,0,0,0-.115.117v.48a.114.114,0,0,0,.115.112m4.022-.177h.4a.843.843,0,0,1,0,1.684h-.4Zm-.578,2.3H32.16a1.46,1.46,0,1,0,0-2.92H31.134a.077.077,0,0,0-.073.08v2.763a.076.076,0,0,0,.073.078Z" transform="translate(0 0.083)" fill="#fff" fill-rule="evenodd"/>
    <path id="パス_28" data-name="パス 28" d="M30.923,34.508h2.465v-.429H30.923Z" transform="translate(0.201 0.083)" fill="#fff" fill-rule="evenodd"/>
  </g>
</svg>
