<svg id="logo_f6e20a96-f6a9-46a9-92fc-11980f702dcd" xmlns="http://www.w3.org/2000/svg" width="56.884" height="33.89" viewBox="0 0 56.884 33.89">
  <path id="パス_205" data-name="パス 205" d="M51.463,16.867a.635.635,0,0,0-.7-.628.851.851,0,0,0-.607.31.058.058,0,0,0,0,.082l.145.153a.057.057,0,0,0,.085,0,.513.513,0,0,1,.347-.187.3.3,0,0,1,.33.287.6.6,0,0,1-.16.35c-.2.279-.6.8-.8,1.048v.074a.062.062,0,0,0,.06.059h1.219a.064.064,0,0,0,.064-.059v-.217a.063.063,0,0,0-.064-.06h-.665c.163-.211.4-.509.53-.7a.863.863,0,0,0,.212-.51m1.384,1.207c-.24,0-.376-.264-.376-.731s.136-.731.376-.731.376.265.376.731-.133.731-.376.731m0-1.836c-.494,0-.781.416-.781,1.106s.287,1.1.781,1.1.784-.415.784-1.1-.285-1.106-.784-1.106m1.993.031h-.216l-.447.385a.061.061,0,0,0-.014.056l.02.155a.051.051,0,0,0,.06.041l.272-.063v1.512a.06.06,0,0,0,.059.059h.266a.057.057,0,0,0,.054-.059V16.331a.06.06,0,0,0-.054-.062" fill="#fff" fill-rule="evenodd"/>
  <g id="グループ_198" data-name="グループ 198" transform="translate(55.496 16.21)">
    <path id="パス_206" data-name="パス 206" d="M1.312,1.869H.645c.163-.211.4-.509.53-.7a.842.842,0,0,0,.212-.51A.632.632,0,0,0,.693.029.855.855,0,0,0,.08.339.059.059,0,0,0,.088.42L.235.573a.056.056,0,0,0,.084,0A.51.51,0,0,1,.663.386.3.3,0,0,1,.992.673a.605.605,0,0,1-.154.35c-.21.279-.6.8-.806,1.048v.074A.061.061,0,0,0,.094,2.2H1.312a.061.061,0,0,0,.061-.059V1.929a.061.061,0,0,0-.061-.06" fill="#fff" fill-rule="evenodd"/>
  </g>
  <path id="パス_207" data-name="パス 207" d="M14.984,2.275a5.584,5.584,0,0,0-1.891,1.849,9.21,9.21,0,0,0-1.239,3.684,31.884,31.884,0,0,0-.077,4.988,15.563,15.563,0,0,1-.47,4.815,11.473,11.473,0,0,1-3.192,5.2,8.141,8.141,0,0,1-1.7,1.205,3.064,3.064,0,0,1-1.819.436,2.856,2.856,0,0,0,1.978-.055,5.627,5.627,0,0,0,1.906-1.166,11.937,11.937,0,0,0,3.358-5.455,15.831,15.831,0,0,0,.492-4.991A32.381,32.381,0,0,1,12.4,7.887a8.736,8.736,0,0,1,1.158-3.458,4.965,4.965,0,0,1,1.7-1.668,8.918,8.918,0,0,1,3.8-1.208,5.807,5.807,0,0,0-4.075.722m20.191-.795A7.748,7.748,0,0,0,32.1.181a12,12,0,0,0-3.3-.123c-1.718.147-3.533.5-4.14.577a26.661,26.661,0,0,0-2.675.573,8.716,8.716,0,0,0,2.756-.021c.613-.075,2.435-.427,4.1-.568A11.462,11.462,0,0,1,32,.732a7.121,7.121,0,0,1,2.857,1.209A6.565,6.565,0,0,1,37.251,5.1a13.726,13.726,0,0,1,.6,2.646,4.755,4.755,0,0,0-.083-2.822,7.063,7.063,0,0,0-2.6-3.44m-4.62,6.078a11.565,11.565,0,0,0-3.263-3.105A20.308,20.308,0,0,0,24.773,3a11.642,11.642,0,0,0,2.206,1.911A11.09,11.09,0,0,1,30.087,7.86a4.9,4.9,0,0,1,.773,2.123,2.579,2.579,0,0,1-.088.946,2.03,2.03,0,0,1-.441.805,5.594,5.594,0,0,1-1.882,1.257,30.48,30.48,0,0,0-3.988,1.946,11.456,11.456,0,0,0-2.166,1.98,21.87,21.87,0,0,0,2.464-1.509A30.269,30.269,0,0,1,28.685,13.5a6.123,6.123,0,0,0,2.06-1.4,2.567,2.567,0,0,0,.556-1.021,3.129,3.129,0,0,0,.108-1.143,5.383,5.383,0,0,0-.853-2.381" fill="#fff" fill-rule="evenodd"/>
  <path id="パス_208" data-name="パス 208" d="M18.055,7.048a3.846,3.846,0,0,0-1.394.235,2.354,2.354,0,0,0-.564.333,1.939,1.939,0,0,0-.528.688.569.569,0,0,0,.109.587c.209-.137.32-.2.391-.355a1.527,1.527,0,0,1,.377-.482A1.784,1.784,0,0,1,16.87,7.8a3.5,3.5,0,0,1,1.178-.2.71.71,0,0,0,.485-.243.592.592,0,0,0-.477-.315" fill="#fff" fill-rule="evenodd"/>
  <path id="パス_209" data-name="パス 209" d="M17.867,7.79a1.747,1.747,0,0,1-.535.278,6.079,6.079,0,0,1-.649.165c-.1.02-.149.123-.215.314.114.165.193.251.3.237A4.61,4.61,0,0,0,17.5,8.6a2.123,2.123,0,0,0,.721-.381c.094-.09.077-.215.011-.4-.193-.053-.294-.083-.368-.027M16.973,16.4a23.282,23.282,0,0,0-1.235,4.016,25.967,25.967,0,0,0-.472,3.232,16.35,16.35,0,0,0-.081,3.285,21.013,21.013,0,0,0,.56,4.167,3.841,3.841,0,0,0,1.548,2.289,8.272,8.272,0,0,1-1.019-2.439,21.341,21.341,0,0,1-.541-4.063,16.212,16.212,0,0,1,.079-3.178,26.546,26.546,0,0,1,.467-3.167,23.475,23.475,0,0,1,1.2-3.919,7.156,7.156,0,0,1,1.282-2.3A3.589,3.589,0,0,0,16.973,16.4" fill="#fff" fill-rule="evenodd"/>
  <g id="グループ_199" data-name="グループ 199" transform="translate(20.894 18.93)">
    <path id="パス_210" data-name="パス 210" d="M2.255,4.862A10.453,10.453,0,0,0,1.231,1.8,6.656,6.656,0,0,0,.045.089a9.37,9.37,0,0,0,.7,1.974,9.843,9.843,0,0,1,.96,2.9,15.777,15.777,0,0,1,.209,2.4s.01,1.154-.11,2.432c-.1,1.277-.3,2.653-.392,3.105a15.6,15.6,0,0,0-.238,2.061A5.151,5.151,0,0,0,1.952,13a30.574,30.574,0,0,0,.4-3.162c.121-1.292.107-2.483.107-2.482a15.3,15.3,0,0,0-.208-2.5" fill="#fff" fill-rule="evenodd"/>
  </g>
  <path id="パス_211" data-name="パス 211" d="M35.945,18.9a12.982,12.982,0,0,0-1.223-2.532c.286.952.553,1.8.909,2.731a17.071,17.071,0,0,1,.75,3.1,9.654,9.654,0,0,1,.013,2.786,15.77,15.77,0,0,1-.648,2.744c-.451,1.415-1.077,2.928-1.261,3.45a10.38,10.38,0,0,0-.641,1.608c-.057.621-.015.5.066.766A10.163,10.163,0,0,0,35,31.375c.187-.508.813-2.027,1.278-3.478a15.729,15.729,0,0,0,.663-2.842,9.989,9.989,0,0,0-.008-2.947,13.888,13.888,0,0,0-.985-3.208m9.933-1.135c-.395-1.489-.749-2.876-.762-2.874A13.841,13.841,0,0,0,44,12.083,6.465,6.465,0,0,0,41.246,9.3a3.126,3.126,0,0,0-2.53.2,6.494,6.494,0,0,1,2.335.323,6.084,6.084,0,0,1,2.475,2.532,13.3,13.3,0,0,1,1.06,2.694c.016-.006.354,1.349.757,2.867A13.063,13.063,0,0,0,46.827,21.5a4.188,4.188,0,0,0,1.85,1.722A15.829,15.829,0,0,1,47.289,21.2a12.568,12.568,0,0,1-1.412-3.435m-5.622,8.314a10.9,10.9,0,0,1-.6-2.069,12.31,12.31,0,0,1-.205-2.155c.024-1.135.1-2.431.038-2.87a3.088,3.088,0,0,0-.671-1.8c.074.674.068,1.088.12,1.837.053.406-.019,1.645-.038,2.836a12.569,12.569,0,0,0,.22,2.258,10.8,10.8,0,0,0,.627,2.181,10.669,10.669,0,0,0,1.464,2.518,3.145,3.145,0,0,0,1.551,1.1c-.423-.522-.663-.868-1.123-1.448a10.557,10.557,0,0,1-1.382-2.383M1.321,16.208H.057A.058.058,0,0,0,0,16.269v2.085a.058.058,0,0,0,.056.06H1.321a.056.056,0,0,0,.054-.06V18.1a.055.055,0,0,0-.054-.059H.4v-.553h.767a.058.058,0,0,0,.06-.059v-.262a.06.06,0,0,0-.06-.059H.4v-.52h.92a.056.056,0,0,0,.054-.06v-.256a.057.057,0,0,0-.054-.061m1.355.9c-.251-.1-.366-.2-.366-.353a.246.246,0,0,1,.273-.221.99.99,0,0,1,.43.173.08.08,0,0,0,.108-.038l.119-.179a.081.081,0,0,0-.021-.107,1.087,1.087,0,0,0-.618-.207.62.62,0,0,0-.7.605c0,.37.289.56.581.68.26.108.393.219.393.378a.259.259,0,0,1-.281.243,1,1,0,0,1-.468-.2.073.073,0,0,0-.107.022l-.109.2c-.029.05-.018.066.013.093a.969.969,0,0,0,.681.248.662.662,0,0,0,.715-.626c0-.405-.347-.588-.649-.712m1.993,1.245V16.586h.474a.058.058,0,0,0,.058-.06V16.27a.06.06,0,0,0-.058-.062H3.788a.063.063,0,0,0-.06.062v.256a.06.06,0,0,0,.06.06h.474v1.769a.062.062,0,0,0,.059.06h.287a.063.063,0,0,0,.061-.06m1.222-1.864H6.1a.45.45,0,0,1,0,.9h-.21Zm-.3,1.23h.536a.78.78,0,0,0,0-1.559H5.588a.041.041,0,0,0-.038.043V17.68a.04.04,0,0,0,.038.042Z" fill="#fff" fill-rule="evenodd"/>
  <path id="パス_212" data-name="パス 212" d="M5.478,18.427H6.767V18.2H5.478Z" fill="#fff" fill-rule="evenodd"/>
</svg>
