<svg xmlns="http://www.w3.org/2000/svg" width="22.5" height="32" viewBox="0 0 22.5 32"><path d="M87.25,0a11.252,11.252,0,0,0-9.571,17.166l8.93,14.391a.937.937,0,0,0,.8.443h.007a.937.937,0,0,0,.8-.456l8.7-14.53A11.252,11.252,0,0,0,87.25,0ZM95.3,16.051l-7.912,13.21L79.273,16.178A9.381,9.381,0,1,1,95.3,16.051Z" transform="translate(-76)"/><g transform="translate(4.805 5.18)"><path d="M172.445,90a6.445,6.445,0,1,0,6.445,6.445A6.452,6.452,0,0,0,172.445,90Zm0,10.756a4.311,4.311,0,1,1,4.3-4.311A4.314,4.314,0,0,1,172.445,100.756Z" transform="translate(-166 -90)"/></g></svg>