<?xml version="1.0" encoding="UTF-8"?>
<svg width="78px" height="78px" viewBox="0 0 78 78" version="1.1" xmlns="http://www.w3.org/2000/svg" xmlns:xlink="http://www.w3.org/1999/xlink">
    <!-- Generator: Sketch 63.1 (92452) - https://sketch.com -->
    <title>Logo</title>
    <desc>Created with Sketch.</desc>
    <g id="Page-1" stroke="none" stroke-width="1" fill="none" fill-rule="evenodd">
        <g id="Blog-Page-Desktop" transform="translate(-63.000000, -125.000000)" fill="#FB48C4">
            <g id="Logo" transform="translate(63.000000, 125.000000)">
                <path d="M31,21.1076947 C29.4335838,20.872787 28.2251089,20.9711313 26.4895333,21.9193846 C26.0296452,22.1850539 25.1046815,22.8478292 24.4032338,23.9964997 C23.6756227,25.1297894 23.2206967,26.6622823 23.0301104,28.1318535 C22.6825442,31.1005924 23.0066536,33.745168 22.9432752,33.7384098 C22.8877909,33.7311854 23.2229521,36.4055906 22.4222642,39.1450149 C21.6939765,41.9331452 19.6818816,44.3791679 18.8945009,44.982051 C18.2061348,45.6028784 17.6163323,46.0193268 17.0114183,46.3364988 C16.4092107,46.6415525 15.7968536,46.9251662 15,46.8237924 C15.7546766,47.1255835 16.5021356,46.9960114 17.1846375,46.7618029 C17.8779656,46.5213022 18.5591142,46.1155737 19.2955215,45.455595 C20.1388376,44.8077346 22.2467895,42.2458893 23.0095857,39.3265556 C23.846812,36.4319245 23.4911262,33.6925002 23.5513469,33.7209315 C23.6135976,33.7209315 23.3003144,31.0525855 23.6354755,28.2199439 C23.8217765,26.81143 24.2525691,25.3693579 24.9125164,24.3414038 C25.5591565,23.2901454 26.3733771,22.7101005 26.7960501,22.4626085 C28.3906596,21.5868317 29.4286218,21.2715241 31,21.1076947" id="Fill-1"></path>
                <path d="M34,20.4028405 C35.0757654,20.5547451 35.8243132,20.5735523 37.0892192,20.3811398 C37.7823528,20.2921671 39.8267194,19.8866059 41.6970583,19.7170997 C43.5735797,19.5225171 45.2382913,19.8309076 45.2348565,19.8499559 C45.2211175,19.852126 46.9400982,20.102648 48.4358197,21.2539886 C49.9881003,22.3431205 50.9947126,24.2571186 51.1254623,24.9189887 C51.4916073,26.1580963 51.6651769,26.8686723 51.8066888,28 C52.0592579,26.8947131 52.1007039,26.0479052 51.7098287,24.7198249 C51.5612183,23.9653653 50.468737,21.8895767 48.7987589,20.7206346 C47.1754934,19.4786336 45.3273659,19.2143678 45.3463716,19.2121977 C45.3564469,19.1917026 43.5735797,18.860647 41.6478268,19.0680089 C39.7216158,19.2358273 37.682058,19.644523 37.0015184,19.7383181 C35.742337,19.9374819 35.0556149,20.1395392 34,20.4028405" id="Fill-3"></path>
                <path d="M36.9893593,22 C37.8185623,22.8916859 38.4665846,23.3813138 39.6470865,24.1923496 C40.2661002,24.6335396 42.2937512,25.8633361 43.3918982,27.5853851 C43.957074,28.4314965 44.2773976,29.349191 44.3268105,30.0227873 C44.379911,30.7023488 44.215447,31.1168146 44.2201179,31.1106107 C44.2179054,31.1039296 44.139238,31.52961 43.6856716,32.0390426 C43.2407094,32.5534859 42.3898729,33.0581463 41.4185769,33.4828723 C39.4799184,34.3208709 37.2553533,35.2175677 36.6122477,35.7246141 C35.3811037,36.5272985 34.8444448,37.139572 34,38 C35.1003596,37.4674223 35.7933697,37.0178808 36.9746092,36.2653046 C37.5697768,35.7947655 39.7028912,34.933383 41.7049752,34.0720006 C42.6905296,33.632958 43.6431421,33.0860637 44.1857009,32.4630527 C44.7403058,31.8440981 44.8587985,31.2785922 44.8587985,31.2876594 C44.8479817,31.2876594 45.050796,30.7739318 44.9878621,29.9712475 C44.9325491,29.1685631 44.5601084,28.1506524 43.957074,27.2377302 C42.7433843,25.351756 40.6373118,24.0995302 40.0232148,23.6643054 C38.8343545,22.8613824 38.0587436,22.5490418 36.9893593,22" id="Fill-5"></path>
                <path d="M27.1504628,29 C27.3593081,28.8526732 27.4716693,28.7890854 27.5398596,28.6169057 C27.5817915,28.5351818 27.7116582,28.2689637 27.9182644,28.0994708 C28.1106219,27.9210218 28.3424687,27.8260879 28.3379905,27.8260879 C28.316821,27.7710083 29.2977425,27.5627805 29.5141192,27.618084 C29.7034234,27.618084 29.8127313,27.5242695 30,27.3525376 C29.8546632,27.1389362 29.7386381,27.0225077 29.5204293,27.0135517 C29.2918394,26.9385449 28.1246671,27.1962548 28.1324021,27.2643206 C28.1346412,27.2690226 27.8417285,27.3847793 27.5677463,27.6279356 C27.285622,27.8614642 27.0920432,28.2425434 27.0391194,28.3679279 C26.9548485,28.607054 27.0134717,28.787742 27.1504628,29" id="Fill-7"></path>
                <path d="M28,28.7681285 C28.1299989,28.926814 28.2145765,29.0123379 28.3389816,28.9985568 C28.4759167,28.9965302 29.1447062,28.8291302 29.1388886,28.8181864 C29.1290436,28.8479779 29.8273681,28.5837049 29.9282794,28.4481231 C30.0296383,28.3565193 30.0144233,28.2387718 29.9394669,28.0547535 C29.728023,28.002669 29.6159241,27.9755121 29.5409678,28.0294206 C29.4814502,28.1072433 28.9775647,28.3082854 28.9500435,28.3013948 C28.9533997,28.3082854 28.3611329,28.4505551 28.2378465,28.4600802 C28.1232864,28.4809546 28.0751801,28.5837049 28,28.7681285" id="Fill-9"></path>
                <path d="M30,35 C29.0197394,35.44381 28.5549199,36.1617177 28.0304793,37.2937414 C27.7337238,37.9209685 27.059668,39.8757423 26.6715685,41.7183646 C26.2353222,43.5634993 26.1824506,45.2898584 26.1491528,45.2754683 C26.176151,45.2663317 25.8757958,46.9833257 26.0602836,48.8931019 C26.1556774,50.7460027 26.4398337,52.8138419 26.679218,53.4814984 C27.0468439,54.7117405 27.5292122,55.3903609 28.3841561,56 C27.8111187,55.108497 27.6097569,54.4712197 27.2623797,53.3138419 C27.0432441,52.69164 26.7669623,50.7167656 26.6627941,48.8403381 C26.4879806,47.0166743 26.7755117,45.3462768 26.7512133,45.3405665 C26.7912607,45.3405665 26.8394075,43.6464139 27.2644046,41.8529009 C27.6495793,40.040201 28.309461,38.1345363 28.5857428,37.5390589 C29.0993841,36.4403837 29.2732977,35.7569667 30,35" id="Fill-11"></path>
                <path d="M34,40 C34.1639359,40.777553 34.2578785,41.2749369 34.5778233,42.1239274 C34.7623355,42.540944 35.2167009,43.8969179 35.3754083,45.2446317 C35.5568847,46.5776116 35.5403562,47.828215 35.5452472,47.8273221 C35.5452472,47.8273221 35.5519936,49.0667634 35.4529912,50.4423826 C35.3733844,51.816439 35.2069187,53.2985447 35.1313598,53.7832038 C35.0013243,54.6810844 34.9785554,55.2016855 34.9331863,56 C35.2566729,55.3244688 35.435788,54.8186017 35.5747624,53.8970574 C35.6582483,53.3956551 35.8274126,51.8789469 35.9095491,50.4912726 C36.0088889,49.1029287 35.9997813,47.8204016 35.9997813,47.8204016 C35.9967455,47.822634 36.0158039,46.5378745 35.8274126,45.1356895 C35.6616215,43.7272537 35.1785841,42.2842154 34.9785554,41.8395167 C34.6650196,41.0333887 34.4111889,40.5799835 34,40" id="Fill-13"></path>
                <path d="M47.8394397,38 C48.1079673,39.0527892 48.3563505,39.9828142 48.6889218,41.0202292 C48.8610987,41.5743892 49.1799871,42.8387459 49.3856112,44.4422531 C49.6033979,46.0436951 49.3994841,47.5281096 49.3977738,47.5223729 C49.4070858,47.5223729 49.2360491,48.9950846 48.7964849,50.5575174 C48.3749745,52.1261458 47.7907893,53.7991812 47.6193725,54.3714689 C47.3841021,55.136508 47.1112036,55.5552831 47.0216944,56.1523532 C46.9736141,56.8405212 47.0102919,56.7053659 47.0842178,57 C47.5148501,56.2005411 47.7683645,55.6296301 48.097325,54.5979517 C48.2712123,54.0339247 48.8553975,52.3542349 49.2852697,50.7516455 C49.7358562,49.1508919 49.9173452,47.6081931 49.9068929,47.6061279 C49.9068929,47.6141592 50.1248696,46.0528738 49.8937801,44.3454185 C49.6773237,42.6492071 49.1583224,41.3658048 48.979114,40.8022367 C48.6359004,39.7551841 48.2909765,38.7843142 47.8394397,38" id="Fill-15"></path>
                <path d="M53,29.4305578 C53.9557872,29.4129013 54.5998116,29.4814083 55.5747461,29.7961636 C56.071449,29.9651945 57.5586296,31.1361691 58.3105546,32.6678058 C59.1138393,34.1638942 59.465924,35.7355521 59.4846207,35.7261354 C59.4981365,35.721427 59.8770274,37.2554178 60.3183159,38.9800982 C60.7307708,40.7158432 61.5802343,42.5151514 61.9579989,43.0464923 C62.5873812,44.052909 63.1277851,44.5611788 64,45 C63.3672387,44.240538 63.0725958,43.6752967 62.4688933,42.7048992 C62.1242423,42.197571 61.3175786,40.5143245 60.9118816,38.8047109 C60.4708183,37.1169914 60.0811148,35.5418022 60.0664728,35.5462752 C60.0502539,35.5559273 59.7019987,33.9555483 58.8414974,32.3563463 C58.0235706,30.7065293 56.4712893,29.4439767 55.7930251,29.20432 C54.6074705,28.8212931 53.878297,29.0225765 53,29.4305578" id="Fill-17"></path>
                <path d="M53,39 C53.0763343,39.7364577 53.0732313,40.1951748 53.1241208,41.0204092 C53.1758378,41.4670307 53.1005379,42.8308583 53.0829541,44.1410547 C53.0829541,45.4544462 53.3036823,46.6242889 53.3036823,46.6242889 C53.2968556,46.6217785 53.4900703,47.805086 53.94518,49.0217133 C54.3947042,50.2451871 55.1359123,51.4271253 55.4247,51.792045 C55.9406289,52.4792078 56.3665701,52.7519276 57,53 C56.5693008,52.4230663 56.3251965,52.0458228 55.855813,51.4072704 C55.5968142,51.0715625 54.8866363,49.9366371 54.4588333,48.7839107 C54.0314439,47.6311843 53.8436078,46.5085826 53.8508482,46.5085826 C53.8508482,46.5085826 53.6419115,45.3894042 53.6427389,44.1410547 C53.6623914,42.890423 53.7395532,41.4626946 53.6805958,40.9820686 C53.6177079,40.0986388 53.4048407,39.5878882 53,39" id="Fill-19"></path>
                <path d="M39,0.698507463 C17.880394,0.698507463 0.698507463,17.880394 0.698507463,39 C0.698507463,60.119606 17.880394,77.3014925 39,77.3014925 C60.119606,77.3014925 77.3014925,60.119606 77.3014925,39 C77.3014925,17.880394 60.119606,0.698507463 39,0.698507463 M39,78 C17.4952836,78 0,60.5047164 0,39 C0,17.4952836 17.4952836,0 39,0 C60.5047164,0 78,17.4952836 78,39 C78,60.5047164 60.5047164,78 39,78" id="Fill-21"></path>
            </g>
        </g>
    </g>
</svg>