<svg viewBox="0 0 20 15" xmlns="http://www.w3.org/2000/svg"><g fill="none" fill-rule="evenodd"><path d="M6.532.847C5.91.757 5.43.795 4.74 1.16a2.43 2.43 0 00-.828.798c-.29.436-.47 1.025-.546 1.59-.137 1.141-.01 2.157-.034 2.155-.022-.003.11 1.025-.207 2.078-.29 1.072-1.088 2.012-1.401 2.244a3.55 3.55 0 01-.748.52c-.24.117-.482.226-.798.188.299.115.596.066.867-.024.276-.092.546-.249.839-.502.335-.249 1.17-1.234 1.475-2.356.332-1.113.19-2.166.215-2.155.024 0-.1-1.025.033-2.114.074-.542.245-1.096.507-1.49.257-.405.58-.628.749-.723.632-.337 1.045-.458 1.669-.52" fill="#454547"/><path d="M6.532.847C5.91.757 5.43.795 4.74 1.16a2.43 2.43 0 00-.828.798c-.29.436-.47 1.025-.546 1.59-.137 1.141-.01 2.157-.034 2.155-.022-.003.11 1.025-.207 2.078-.29 1.072-1.088 2.012-1.401 2.244a3.55 3.55 0 01-.748.52c-.24.117-.482.226-.798.188.299.115.596.066.867-.024.276-.092.546-.249.839-.502.335-.249 1.17-1.234 1.475-2.356.332-1.113.19-2.166.215-2.155.024 0-.1-1.025.033-2.114.074-.542.245-1.096.507-1.49.257-.405.58-.628.749-.723.632-.337 1.045-.458 1.669-.52" stroke="#454547" stroke-width=".355" stroke-linecap="round" stroke-linejoin="round"/><path d="M7.818.698A3.83 3.83 0 009.026.69C9.297.657 10.097.507 10.83.444c.734-.073 1.385.042 1.384.05-.005 0 .667.093 1.252.52.607.405 1.001 1.116 1.052 1.362.143.46.211.724.267 1.145a2.037 2.037 0 00-.038-1.219c-.058-.28-.486-1.05-1.139-1.486-.635-.46-1.358-.559-1.35-.56.003-.008-.694-.13-1.447-.054-.754.062-1.552.215-1.818.25C8.5.524 8.232.6 7.818.697" fill="#454547"/><path d="M7.818.698A3.83 3.83 0 009.026.69C9.297.657 10.097.507 10.83.444c.734-.073 1.385.042 1.384.05-.005 0 .667.093 1.252.52.607.405 1.001 1.116 1.052 1.362.143.46.211.724.267 1.145a2.037 2.037 0 00-.038-1.219c-.058-.28-.486-1.05-1.139-1.486-.635-.46-1.358-.559-1.35-.56.003-.008-.694-.13-1.447-.054-.754.062-1.552.215-1.818.25C8.5.524 8.232.6 7.818.697" stroke="#454547" stroke-width=".355" stroke-linecap="round" stroke-linejoin="round"/><path d="M9.04 1.474c.302.336.538.52.968.824.226.165.965.627 1.365 1.273.206.318.322.662.34.915.02.255-.04.41-.04.408 0-.002-.028.158-.194.35-.162.192-.472.381-.825.541-.707.314-1.517.651-1.752.841-.448.302-.644.532-.951.854.4-.199.653-.368 1.084-.65.216-.177.993-.5 1.723-.824.359-.165.706-.37.904-.604.201-.232.244-.445.244-.44-.003 0 .07-.194.048-.495-.02-.302-.156-.684-.375-1.027-.443-.708-1.21-1.177-1.434-1.34-.433-.302-.715-.42-1.105-.626" fill="#454547"/><path d="M9.04 1.474c.302.336.538.52.968.824.226.165.965.627 1.365 1.273.206.318.322.662.34.915.02.255-.04.41-.04.408 0-.002-.028.158-.194.35-.162.192-.472.381-.825.541-.707.314-1.517.651-1.752.841-.448.302-.644.532-.951.854.4-.199.653-.368 1.084-.65.216-.177.993-.5 1.723-.824.359-.165.706-.37.904-.604.201-.232.244-.445.244-.44-.003 0 .07-.194.048-.495-.02-.302-.156-.684-.375-1.027-.443-.708-1.21-1.177-1.434-1.34-.433-.302-.715-.42-1.105-.626" stroke="#454547" stroke-width=".355" stroke-linecap="round" stroke-linejoin="round"/><path d="M5.045 4.015c.092-.059.142-.084.171-.153.02-.033.076-.139.167-.207.084-.072.186-.11.184-.11-.009-.022.423-.105.518-.083.084 0 .131-.037.214-.106-.064-.086-.115-.132-.21-.136-.102-.03-.615.073-.612.101.001.002-.128.048-.248.145a.887.887 0 00-.233.296c-.037.096-.01.168.05.253" fill="#454547"/><path d="M5.045 4.015c.092-.059.142-.084.171-.153.02-.033.076-.139.167-.207.084-.072.186-.11.184-.11-.009-.022.423-.105.518-.083.084 0 .131-.037.214-.106-.064-.086-.115-.132-.21-.136-.102-.03-.615.073-.612.101.001.002-.128.048-.248.145a.887.887 0 00-.233.296c-.037.096-.01.168.05.253" stroke="#454547" stroke-width=".355" stroke-linecap="round" stroke-linejoin="round"/><path d="M5.391 3.868c.052.07.086.108.136.102a2.05 2.05 0 00.32-.08c-.004.013.275-.104.316-.164.04-.04.035-.092.004-.173-.084-.023-.129-.036-.159-.012-.024.035-.225.123-.237.12.002.003-.235.066-.285.07-.046.01-.065.055-.095.137" fill="#454547"/><path d="M5.391 3.868c.052.07.086.108.136.102a2.05 2.05 0 00.32-.08c-.004.013.275-.104.316-.164.04-.04.035-.092.004-.173-.084-.023-.129-.036-.159-.012-.024.035-.225.123-.237.12.002.003-.235.066-.285.07-.046.01-.065.055-.095.137" stroke="#454547" stroke-width=".355" stroke-linecap="round" stroke-linejoin="round"/><g><path d="M6.398 6.358c-.39.174-.575.456-.784.9-.118.245-.387 1.012-.54 1.734-.175.724-.196 1.401-.209 1.395.011-.003-.109.67-.035 1.42.037.726.151 1.537.246 1.8.146.481.338.747.678.986-.228-.35-.308-.599-.446-1.053-.087-.245-.197-1.019-.239-1.755-.069-.715.045-1.37.036-1.372.016 0 .035-.664.204-1.368.153-.71.416-1.458.526-1.69.204-.433.273-.7.563-.997" fill="#454547"/><path d="M6.398 6.358c-.39.174-.575.456-.784.9-.118.245-.387 1.012-.54 1.734-.175.724-.196 1.401-.209 1.395.011-.003-.109.67-.035 1.42.037.726.151 1.537.246 1.8.146.481.338.747.678.986-.228-.35-.308-.599-.446-1.053-.087-.245-.197-1.019-.239-1.755-.069-.715.045-1.37.036-1.372.016 0 .035-.664.204-1.368.153-.71.416-1.458.526-1.69.204-.433.273-.7.563-.997" stroke="#454547" stroke-width=".355" stroke-linecap="round" stroke-linejoin="round"/></g><g><path d="M7.356 8.388c.087.312.137.512.307.853.098.167.339.711.423 1.251.097.535.088 1.037.09 1.037 0 0 .004.497-.05 1.05-.041.55-.13 1.145-.17 1.34-.068.36-.08.57-.104.89.17-.272.267-.475.34-.845.045-.2.135-.809.178-1.367.053-.556.048-1.07.048-1.07-.001 0 .008-.515-.091-1.078a4.486 4.486 0 00-.451-1.323 2.918 2.918 0 00-.52-.738" fill="#454547"/><path d="M7.356 8.388c.087.312.137.512.307.853.098.167.339.711.423 1.251.097.535.088 1.037.09 1.037 0 0 .004.497-.05 1.05-.041.55-.13 1.145-.17 1.34-.068.36-.08.57-.104.89.17-.272.267-.475.34-.845.045-.2.135-.809.178-1.367.053-.556.048-1.07.048-1.07-.001 0 .008-.515-.091-1.078a4.486 4.486 0 00-.451-1.323 2.918 2.918 0 00-.52-.738" stroke="#454547" stroke-width=".355" stroke-linecap="round" stroke-linejoin="round"/></g><g><path d="M13.407 7.245c.126.411.244.774.4 1.179.082.216.232.71.329 1.336.103.625.006 1.204.006 1.202.004 0-.077.575-.284 1.185-.2.612-.474 1.265-.555 1.489-.11.298-.24.462-.281.695-.023.268-.006.216.029.331.203-.312.323-.535.478-.938.082-.22.357-.875.56-1.501a6.936 6.936 0 00.293-1.228c0 .003.103-.606-.007-1.273-.102-.662-.346-1.163-.431-1.383-.162-.409-.324-.788-.537-1.094" fill="#454547"/><path d="M13.407 7.245c.126.411.244.774.4 1.179.082.216.232.71.329 1.336.103.625.006 1.204.006 1.202.004 0-.077.575-.284 1.185-.2.612-.474 1.265-.555 1.489-.11.298-.24.462-.281.695-.023.268-.006.216.029.331.203-.312.323-.535.478-.938.082-.22.357-.875.56-1.501a6.936 6.936 0 00.293-1.228c0 .003.103-.606-.007-1.273-.102-.662-.346-1.163-.431-1.383-.162-.409-.324-.788-.537-1.094" stroke="#454547" stroke-width=".355" stroke-linecap="round" stroke-linejoin="round"/></g><g><path d="M15.16 4.28c.38-.006.637.02 1.025.14.198.064.789.51 1.088 1.092.319.57.459 1.167.467 1.164.005-.002.156.582.33 1.238.165.66.503 1.345.654 1.547.25.383.464.576.812.743-.252-.289-.37-.504-.61-.873-.137-.193-.457-.834-.62-1.484-.174-.642-.33-1.242-.335-1.24-.006.004-.145-.605-.487-1.214-.325-.627-.943-1.108-1.212-1.199-.472-.145-.761-.069-1.111.086" fill="#454547"/><path d="M15.16 4.28c.38-.006.637.02 1.025.14.198.064.789.51 1.088 1.092.319.57.459 1.167.467 1.164.005-.002.156.582.33 1.238.165.66.503 1.345.654 1.547.25.383.464.576.812.743-.252-.289-.37-.504-.61-.873-.137-.193-.457-.834-.62-1.484-.174-.642-.33-1.242-.335-1.24-.006.004-.145-.605-.487-1.214-.325-.627-.943-1.108-1.212-1.199-.472-.145-.761-.069-1.111.086" stroke="#454547" stroke-width=".355" stroke-linecap="round" stroke-linejoin="round"/></g><g><path d="M15.206 7.597c.033.29.032.47.054.793.022.175-.011.71-.018 1.225 0 .515.095.975.095.975-.003 0 .08.463.278.941.195.48.516.943.64 1.087.224.27.409.376.683.474-.187-.226-.293-.374-.496-.625a4.673 4.673 0 01-.605-1.03 4.657 4.657 0 01-.263-.893s-.09-.439-.09-.929c.009-.49.042-1.05.016-1.24a1.315 1.315 0 00-.294-.778" fill="#454547"/><path d="M15.206 7.597c.033.29.032.47.054.793.022.175-.011.71-.018 1.225 0 .515.095.975.095.975-.003 0 .08.463.278.941.195.48.516.943.64 1.087.224.27.409.376.683.474-.187-.226-.293-.374-.496-.625a4.673 4.673 0 01-.605-1.03 4.657 4.657 0 01-.263-.893s-.09-.439-.09-.929c.009-.49.042-1.05.016-1.24a1.315 1.315 0 00-.294-.778" stroke="#454547" stroke-width=".355" stroke-linecap="round" stroke-linejoin="round"/></g></g></svg>
